<?xml version="1.0" encoding="UTF-8" standalone="no"?>
<svg
   xmlns:dc="http://purl.org/dc/elements/1.1/"
   xmlns:cc="http://creativecommons.org/ns#"
   xmlns:rdf="http://www.w3.org/1999/02/22-rdf-syntax-ns#"
   xmlns:svg="http://www.w3.org/2000/svg"
   xmlns="http://www.w3.org/2000/svg"
   xmlns:sodipodi="http://sodipodi.sourceforge.net/DTD/sodipodi-0.dtd"
   xmlns:inkscape="http://www.inkscape.org/namespaces/inkscape"
   version="1.1"
   id="Layer_1"
   x="0px"
   y="0px"
   width="71"
   height="62.8"
   viewBox="-37 -15.8 71 62.8"
   xml:space="preserve"
   inkscape:version="0.91 r13725"
   sodipodi:docname="E-logo.svg"><metadata
     id="metadata35"><rdf:RDF><cc:Work
         rdf:about=""><dc:format>image/svg+xml</dc:format><dc:type
           rdf:resource="http://purl.org/dc/dcmitype/StillImage" /></cc:Work></rdf:RDF></metadata><defs
     id="defs33" /><sodipodi:namedview
     pagecolor="#ffffff"
     bordercolor="#666666"
     borderopacity="1"
     objecttolerance="10"
     gridtolerance="10"
     guidetolerance="10"
     inkscape:pageopacity="0"
     inkscape:pageshadow="2"
     inkscape:window-width="1366"
     inkscape:window-height="706"
     id="namedview31"
     showgrid="false"
     inkscape:zoom="3.7579618"
     inkscape:cx="35.5"
     inkscape:cy="31.4"
     inkscape:window-x="-8"
     inkscape:window-y="-8"
     inkscape:window-maximized="1"
     inkscape:current-layer="g3"
     inkscape:snap-center="true"
     inkscape:snap-page="true" /><g
     id="g3"><g
       id="g5"
       transform="matrix(1.2962626,0,0,1.2340887,2.8019467,8.6568649)"><path
         d="m -12,0.6 c -2.1,0.8 -4.5,-0.3 -5.3,-2.5 -0.8,-2.1 0.3,-4.5 2.5,-5.3 l 22.7,-8.4 c 2.1,-0.8 4.5,0.3 5.3,2.5 0.8,2.1 -0.3,4.5 -2.5,5.3 L -12,0.6 Z"
         id="path7"
         inkscape:connector-curvature="0"
         style="fill:#002561" /><path
         d="m -12,12.9 c -2.1,0.8 -4.5,-0.3 -5.3,-2.5 -0.8,-2.1 0.3,-4.5 2.5,-5.3 L 7.9,-3.3 C 10,-4 12.4,-3 13.2,-0.8 14,1.3 12.9,3.7 10.7,4.5 L -12,12.9 Z"
         id="path9"
         inkscape:connector-curvature="0"
         style="fill:#002561" /><path
         d="m -12,25.2 c -2.1,0.8 -4.5,-0.3 -5.3,-2.5 -0.8,-2.1 0.3,-4.5 2.5,-5.3 L 7.9,9.2 c 2.1,-0.8 4.5,0.3 5.3,2.5 0.8,2.1 -0.3,4.5 -2.5,5.3 L -12,25.2 Z"
         id="path11"
         inkscape:connector-curvature="0"
         style="fill:#002561" /></g><path
       style="fill:#ffffff"
       d="m -44.950169,58.416368 0,-6.075274 4.829128,0 4.829126,0 0,1.149376 0,1.149376 -3.276908,0 -3.276907,0 0,1.313573 0,1.313573 3.10444,0 3.104438,0 0,1.149376 0,1.149375 -3.104438,0 -3.10444,0 0,1.313572 0,1.313573 3.276907,0 3.276908,0 0,1.149375 0,1.149376 -4.829126,0 -4.829128,0 0,-6.075271 z"
       id="path3362"
       inkscape:connector-curvature="0" /><path
       style="fill:#ffffff"
       d="m -32.532413,58.416368 0,-6.075274 3.018205,0.0019 c 5.257279,0.0032 6.984987,0.853184 6.984987,3.436464 0,1.249258 -0.153689,1.576114 -1.031671,2.1941 -0.925014,0.651091 -0.978796,0.781788 -0.520222,1.2642 0.281296,0.295921 0.807219,1.340508 1.168716,2.321305 0.3615,0.980797 0.767428,2.041876 0.902066,2.357955 0.213691,0.501667 0.02614,0.574688 -1.475999,0.574688 l -1.720792,0 -0.81691,-2.216653 c -0.79719,-2.163146 -0.848133,-2.219115 -2.110424,-2.318576 l -1.293517,-0.101924 0,2.318575 0,2.318575 -1.552219,0 -1.55222,0 0,-6.075271 z m 6.267952,-1.364471 c 1.380496,-1.189408 0.52878,-2.412051 -1.680282,-2.412051 -1.306811,0 -1.483791,0.08789 -1.487941,0.738885 -0.0026,0.406387 -0.09831,1.071383 -0.2127,1.477769 -0.192021,0.682158 -0.09443,0.738884 1.271066,0.738884 0.892216,0 1.729335,-0.215636 2.109857,-0.543487 z"
       id="path3364"
       inkscape:connector-curvature="0" /><path
       style="fill:#ffffff"
       d="m -19.769719,58.416368 0,-6.075274 1.552218,0 1.55222,0 0,6.075274 0,6.075271 -1.55222,0 -1.552218,0 0,-6.075271 z"
       id="path3366"
       inkscape:connector-curvature="0" /><path
       style="fill:#ffffff"
       d="m -10.98808,64.202764 c -1.604218,-0.693744 -3.171967,-2.320798 -3.464016,-3.595054 -0.110649,-0.482774 -0.263028,-1.067637 -0.338621,-1.299696 -0.282073,-0.865922 0.632704,-3.737485 1.505051,-4.724484 1.252679,-1.41732 3.2991434,-2.226568 5.6525431,-2.235224 2.9271579,-0.01074 3.7305348,0.37738 3.7305348,1.802377 0,1.095245 -0.046925,1.145149 -0.7431759,0.790399 -1.2601525,-0.642065 -3.969327,-0.511851 -5.0364635,0.242073 -1.9453675,1.374389 -2.2094095,4.568598 -0.5112915,6.185268 1.108862,1.055676 2.0751571,1.286156 4.4244463,1.055318 l 1.8664846,-0.183399 0,1.090515 c 0,0.691466 -0.1996556,1.163454 -0.5456177,1.289845 -1.1853997,0.433062 -5.1592598,0.179108 -6.5398742,-0.417938 z"
       id="path3368"
       inkscape:connector-curvature="0" /><path
       style="fill:#ffffff"
       d="m -1.262717,64.581751 c -0.8147244,-0.116053 -0.9477144,-0.261483 -0.7808193,-0.853877 0.110636,-0.392702 0.2032747,-0.968956 0.2058646,-1.280563 0.00389,-0.47216 0.1521359,-0.513198 0.88950962,-0.246296 1.3352038,0.483295 3.79629178,0.393182 4.27551378,-0.156548 0.785826,-0.901448 0.240651,-1.598248 -1.855145,-2.371105 -2.8058072,-1.034683 -3.6501058,-1.853496 -3.6501058,-3.53992 0,-2.489059 1.87526022,-3.792348 5.4566868,-3.792348 2.77458,0 3.166754,0.180316 3.166754,1.456013 l 0,1.05735 -1.705382,-0.332588 c -2.14904,-0.41911 -3.468682,0.04945 -3.468682,1.231603 0,0.688156 0.34078,0.923287 2.450503,1.69079 2.119132,0.770927 2.519384,1.04843 2.959897,2.052155 0.925703,2.109255 -0.05089,4.120699 -2.414652,4.973347 -0.945955,0.341223 -3.55033798,0.393964 -5.5299427,0.111981 z"
       id="path3370"
       inkscape:connector-curvature="0" /><path
       style="fill:#ffffff"
       d="m 9.4637467,64.584819 c -0.953144,-0.137464 -1.196116,-0.738905 -0.747816,-1.851118 0.162539,-0.403257 0.640156,-0.463013 2.5087243,-0.313873 1.848632,0.147549 2.397867,0.08108 2.759692,-0.333982 0.824868,-0.946235 0.304964,-1.629214 -1.84324,-2.421396 -3.5333483,-1.302976 -4.6836403,-3.154546 -3.2868353,-5.29066 0.905377,-1.384579 2.5444393,-2.032696 5.1406093,-2.032696 2.683327,0 3.14373,0.195254 3.14373,1.333236 0,0.926367 -0.0149,0.932893 -1.695853,0.743357 -2.060208,-0.232298 -3.328434,0.03368 -3.620951,0.759406 -0.329054,0.816372 0.60558,1.573428 2.729342,2.210775 2.231133,0.66957 3.026472,1.596721 3.026472,3.528051 0,3.058977 -2.984785,4.408625 -8.1138743,3.6689 z"
       id="path3372"
       inkscape:connector-curvature="0" /></g><path
     style="fill:#ffffff"
     d="m -16.106722,9.3102949 c -1.980535,-0.564556 -3.663426,-2.702131 -3.662462,-4.6519895 6.78e-4,-1.3696188 0.944406,-3.1527635 2.092021,-3.95280384 1.405671,-0.9799405 31.325387,-11.41605256 32.725137,-11.41465356 3.079742,0.0031 5.6298,3.234007 4.80287,6.085247 -0.75761,2.6122351 -0.953431,2.707097 -17.9784273,8.7093267 -8.6809805,3.0605142 -16.0540217,5.5518692 -16.3845397,5.5363442 -0.330515,-0.015525 -1.048086,-0.155687 -1.594599,-0.311471 z"
     id="path3363"
     inkscape:connector-curvature="0" /><path
     style="fill:#ffffff"
     d="m -17.034311,24.076587 c -1.498577,-0.827293 -2.710909,-2.733848 -2.710168,-4.2621 6.73e-4,-1.384394 0.940714,-3.175837 2.069091,-3.943081 1.114917,-0.758091 31.504823,-11.4489747 32.517835,-11.4394698 1.218814,0.011477 3.594768,1.1756687 4.203076,2.0595327 1.497799,2.176287 1.279923,4.6159581 -0.565225,6.3291141 -0.951603,0.883532 -3.760796,1.981524 -16.6667083,6.5143 -8.5372071,2.998411 -15.9878607,5.447938 -16.5570087,5.443392 -0.569146,-0.0046 -1.600048,-0.320306 -2.290892,-0.701688 z"
     id="path3365"
     inkscape:connector-curvature="0" /><path
     style="fill:#ffffff"
     d="m -16.934959,39.316012 c -3.280833,-1.539496 -3.747905,-6.321228 -0.808843,-8.280673 0.498328,-0.332232 7.8910395,-3.002958 16.4282467,-5.934946 16.7463313,-5.751304 16.9227353,-5.790879 19.1330923,-4.292457 2.940394,1.99332 2.923482,5.868118 -0.03479,7.970848 -1.258527,0.894557 -31.119308,11.084747 -32.456208,11.075896 -0.621214,-0.0041 -1.63889,-0.246513 -2.261503,-0.538668 z"
     id="path3367"
     inkscape:connector-curvature="0" /></svg>