<?xml version="1.0" encoding="utf-8"?>
<!-- Generator: Adobe Illustrator 15.1.0, SVG Export Plug-In . SVG Version: 6.00 Build 0)  -->
<!DOCTYPE svg PUBLIC "-//W3C//DTD SVG 1.1//EN" "http://www.w3.org/Graphics/SVG/1.1/DTD/svg11.dtd">
<svg version="1.1" id="Layer_1" xmlns="http://www.w3.org/2000/svg" xmlns:xlink="http://www.w3.org/1999/xlink" x="0px" y="0px"
	 width="100px" height="144.2px" viewBox="0 0 100 144.2" enable-background="new 0 0 100 144.2" xml:space="preserve">
<g>
	<path fill-rule="evenodd" clip-rule="evenodd" fill="#DADADA" d="M0.142,7.748c0-4.197,3.401-7.602,7.596-7.602h81.085
		c4.194,0,7.595,3.404,7.595,7.602V133.01c0,4.197-3.4,7.6-7.595,7.6H7.737c-4.194,0-7.596-3.402-7.596-7.6V7.748z"/>
	<path opacity="0.5" fill-rule="evenodd" clip-rule="evenodd" fill="#4C4A50" d="M98.044,16.402c1.224,0,1.956-0.736,1.956-1.959
		c0-4.651,0-4.651,0-4.651C100,4.407,95.843,0,90.22,0C9.78,0,9.78,0,9.78,0C4.4,0,0,4.407,0,9.792c0,124.605,0,124.605,0,124.605
		c0,5.387,4.4,9.794,9.78,9.794c80.439,0,80.439,0,80.439,0c5.623,0,9.78-4.407,9.78-9.794c0-112.121,0-112.121,0-112.121
		c0-0.979-0.732-1.957-1.956-1.957c-0.979,0-1.955,0.978-1.955,1.957c0,112.121,0,112.121,0,112.121
		c0,3.185-2.445,5.876-5.869,5.876c-80.439,0-80.439,0-80.439,0c-3.18,0-5.869-2.691-5.869-5.876c0-124.605,0-124.605,0-124.605
		c0-3.182,2.689-5.874,5.869-5.874c80.439,0,80.439,0,80.439,0c3.424,0,5.869,2.692,5.869,5.874c0,4.651,0,4.651,0,4.651
		C96.089,15.666,97.065,16.402,98.044,16.402L98.044,16.402z M36.186,41.862c27.873,0,27.873,0,27.873,0
		c0.733,0,1.223-0.246,1.711-0.979c0.245-0.488,0.245-1.226,0-1.713C51.833,11.259,51.833,11.259,51.833,11.259
		c-0.244-0.731-0.978-1.223-1.711-1.223s-1.466,0.491-1.711,1.223C34.475,39.17,34.475,39.17,34.475,39.17
		c-0.489,0.487-0.245,1.225,0,1.713C34.72,41.616,35.452,41.862,36.186,41.862L36.186,41.862z M50.122,16.402
		c10.757,21.542,10.757,21.542,10.757,21.542c-21.516,0-21.516,0-21.516,0L50.122,16.402L50.122,16.402L50.122,16.402z
		 M75.55,81.521c0.489,0.244,0.978,0.49,1.469,0.49c0.488,0,0.977-0.246,1.222-0.49c7.824-7.589,7.824-7.589,7.824-7.589v-0.246
		c0,0,0,0,0.243-0.243l0,0v-0.246c0.245,0,0.245-0.244,0.245-0.244s0,0,0-0.246c0,0,0,0,0-0.243l0,0l0,0c0-0.244,0-0.244,0-0.49l0,0
		c0-0.243,0-0.243-0.245-0.243v-0.246c0,0,0,0,0-0.246c-0.243,0-0.243,0-0.243-0.244c-7.824-7.587-7.824-7.587-7.824-7.587
		c-0.733-0.735-1.956-0.735-2.69,0c-0.733,0.731-0.733,1.957,0,2.692c4.401,4.405,4.401,4.405,4.401,4.405
		c-43.766,0-43.766,0-43.766,0c-1.224,0-1.956,0.733-1.956,1.959c0,0.979,0.732,1.959,1.956,1.959c43.766,0,43.766,0,43.766,0
		c-4.401,4.406-4.401,4.406-4.401,4.406C74.816,79.563,74.816,80.785,75.55,81.521L75.55,81.521z M86.553,50.918v-0.243v-0.244
		c0,0,0,0-0.245-0.246c0,0,0,0,0-0.244l0,0c-0.243,0-0.243-0.245-0.243-0.245c-7.824-7.59-7.824-7.59-7.824-7.59
		c-0.733-0.979-1.956-0.979-2.69,0c-0.733,0.736-0.733,1.959,0,2.692c4.401,4.407,4.401,4.407,4.401,4.407
		c-43.766,0-43.766,0-43.766,0c-1.224,0-1.956,0.735-1.956,1.959c0,0.979,0.732,1.959,1.956,1.959c43.766,0,43.766,0,43.766,0
		c-4.401,4.161-4.401,4.161-4.401,4.161l0,0c-0.733,0.733-0.733,1.959,0,2.694c0.489,0.489,0.978,0.733,1.469,0.733
		c0.488,0,0.977-0.244,1.222-0.733c7.824-7.589,7.824-7.589,7.824-7.589s0-0.246,0.243-0.246l0,0c0-0.244,0-0.244,0-0.244
		c0.245-0.246,0.245-0.246,0.245-0.246v-0.245v-0.244l0,0C86.553,50.918,86.553,50.918,86.553,50.918L86.553,50.918z M66.015,83.233
		c0-1.223-0.978-1.958-1.956-1.958c-43.767,0-43.767,0-43.767,0c4.158-4.405,4.158-4.405,4.158-4.405
		c0.979-0.735,0.979-1.959,0-2.694c-0.734-0.733-1.957-0.733-2.69,0c-7.579,7.589-7.579,7.589-7.579,7.589
		c-0.244,0-0.244,0.246-0.244,0.246v0.244c-0.244,0-0.244,0-0.244,0.245l0,0c0,0.244,0,0.244,0,0.244c0,0.246,0,0.246,0,0.246
		l-0.244,0.243h0.244v0.246v0.244c0,0,0,0,0,0.244c0,0,0,0,0.244,0c0,0.245,0,0.245,0,0.245s0,0.244,0.244,0.244l0,0
		c7.579,7.835,7.579,7.835,7.579,7.835c0.489,0.244,0.98,0.488,1.468,0.488c0.488,0,0.977-0.244,1.223-0.488
		c0.979-0.979,0.979-2.202,0-2.938c-4.158-4.161-4.158-4.161-4.158-4.161c43.767,0,43.767,0,43.767,0
		C65.037,85.192,66.015,84.213,66.015,83.233L66.015,83.233z M24.45,52.633c-0.734-0.733-1.957-0.733-2.69,0
		c-7.579,7.59-7.579,7.59-7.579,7.59c-0.244,0.245-0.244,0.245-0.244,0.489l0,0c-0.244,0-0.244,0.244-0.244,0.244s0,0,0,0.246
		c0,0,0,0,0,0.243c0,0,0,0,0,0.246h-0.244l0.244,0.244c0,0,0,0,0,0.245c0,0,0,0,0,0.244l0,0c0,0.246,0,0.246,0.244,0.246v0.246
		c0,0,0,0.241,0.244,0.241c7.579,7.59,7.579,7.59,7.579,7.59c0.489,0.489,0.98,0.489,1.468,0.489c0.488,0,0.977,0,1.223-0.489
		c0.979-0.731,0.979-1.957,0-2.692l0,0c-4.158-4.407-4.158-4.407-4.158-4.407c43.767,0,43.767,0,43.767,0
		c0.979,0,1.956-0.731,1.956-1.957c0-0.979-0.978-1.961-1.956-1.961c-43.767,0-43.767,0-43.767,0
		c4.158-4.159,4.158-4.159,4.158-4.159C25.429,54.592,25.429,53.369,24.45,52.633L24.45,52.633z"/>
</g>
</svg>
